<svg width="1312" height="73" viewBox="0 0 1312 73" fill="none" xmlns="http://www.w3.org/2000/svg">
<path d="M19.5 19C17.2019 19 14.9262 19.4527 12.803 20.3321C10.6798 21.2116 8.7507 22.5006 7.1256 24.1256C5.5006 25.7507 4.2116 27.6798 3.3321 29.803C2.4527 31.9262 2 34.2019 2 36.5C2 38.7981 2.4527 41.0738 3.3321 43.197C4.2116 45.3202 5.5006 47.2493 7.1256 48.8744C8.7507 50.4994 10.6798 51.7884 12.803 52.6679C14.9262 53.5473 17.2019 54 19.5 54V45.25C18.3509 45.25 17.2131 45.0237 16.1515 44.5839C15.0899 44.1442 14.1253 43.4997 13.3128 42.6872C12.5003 41.8747 11.8558 40.9101 11.4161 39.8485C10.9763 38.7869 10.75 37.6491 10.75 36.5C10.75 35.3509 10.9763 34.2131 11.4161 33.1515C11.8558 32.0899 12.5003 31.1253 13.3128 30.3128C14.1253 29.5003 15.0899 28.8558 16.1515 28.4161C17.2131 27.9763 18.3509 27.75 19.5 27.75V19Z" fill="#0F52FF"/>
<path d="M19.5001 42.3333C22.7218 42.3333 25.3334 39.7217 25.3334 36.5C25.3334 33.2783 22.7218 30.6667 19.5001 30.6667C16.2784 30.6667 13.6668 33.2783 13.6668 36.5C13.6668 39.7217 16.2784 42.3333 19.5001 42.3333Z" fill="#0F52FF"/>
<path d="M2 36.5C2 38.7981 2.4527 41.0738 3.3321 43.197C4.2116 45.3202 5.5006 47.2493 7.1256 48.8744C8.7507 50.4994 10.6798 51.7884 12.803 52.6679C14.9262 53.5473 17.2019 54 19.5 54C21.7981 54 24.0738 53.5473 26.197 52.6679C28.3202 51.7884 30.2493 50.4994 31.8744 48.8744C33.4994 47.2493 34.7884 45.3202 35.6679 43.197C36.5473 41.0738 37 38.7981 37 36.5H28.25C28.25 37.6491 28.0237 38.7869 27.5839 39.8485C27.1442 40.9101 26.4997 41.8747 25.6872 42.6872C24.8747 43.4997 23.9101 44.1442 22.8485 44.5839C21.7869 45.0237 20.6491 45.25 19.5 45.25C18.3509 45.25 17.2131 45.0237 16.1515 44.5839C15.0899 44.1442 14.1253 43.4997 13.3128 42.6872C12.5003 41.8747 11.8558 40.9101 11.4161 39.8485C10.9763 38.7869 10.75 37.6491 10.75 36.5H2Z" fill="#5BD0F4"/>
<path d="M25.3334 36.4999C25.3334 34.9528 24.7188 33.4691 23.6249 32.3751C22.5309 31.2811 21.0472 30.6665 19.5001 30.6665C17.953 30.6665 16.4693 31.2811 15.3753 32.3751C14.2813 33.4691 13.6667 34.9528 13.6667 36.4999H19.5001H25.3334Z" fill="#5BD0F4"/>
<path d="M46.1396 29.925H43.9661V42H46.1396V29.925Z" fill="#0F52FF"/>
<path d="M47.5589 37.7219C47.5589 40.5164 49.4909 42.2414 52.0439 42.2414C54.5969 42.2414 56.5289 40.5164 56.5289 37.7219C56.5289 34.9274 54.5969 33.2024 52.0439 33.2024C49.4909 33.2024 47.5589 34.9274 47.5589 37.7219ZM49.7324 37.7219C49.7324 36.0659 50.6984 35.0999 52.0439 35.0999C53.3894 35.0999 54.3554 36.0659 54.3554 37.7219C54.3554 39.3779 53.3894 40.3439 52.0439 40.3439C50.6984 40.3439 49.7324 39.3779 49.7324 37.7219Z" fill="#0F52FF"/>
<path d="M64.296 33.4439V34.5996H64.1235C63.606 33.8579 62.778 33.2024 61.2945 33.2024C59.259 33.2024 57.4305 34.9274 57.4305 37.5839C57.4305 40.2404 59.259 41.9654 61.2945 41.9654C62.778 41.9654 63.606 41.2926 64.089 40.6199H64.2615V41.4479C64.2615 43.1039 63.2955 43.8629 61.881 43.8629C60.4665 43.8629 59.742 43.1039 59.4487 42.1206L57.4995 42.9659C57.948 44.2596 59.259 45.6914 61.9155 45.6914C64.641 45.6914 66.435 44.2596 66.435 41.4996V33.4439H64.296ZM61.95 40.1024C60.6045 40.1024 59.604 39.1364 59.604 37.5839C59.604 36.0314 60.6045 35.0654 61.95 35.0654C63.2955 35.0654 64.296 36.0314 64.296 37.5839C64.296 39.1364 63.2955 40.1024 61.95 40.1024Z" fill="#0F52FF"/>
<path d="M67.8411 37.7219C67.8411 40.5164 69.7731 42.2414 72.3261 42.2414C74.8791 42.2414 76.811 40.5164 76.811 37.7219C76.811 34.9274 74.8791 33.2024 72.3261 33.2024C69.7731 33.2024 67.8411 34.9274 67.8411 37.7219ZM70.0146 37.7219C70.0146 36.0659 70.9806 35.0999 72.3261 35.0999C73.6716 35.0999 74.6376 36.0659 74.6376 37.7219C74.6376 39.3779 73.6716 40.3439 72.3261 40.3439C70.9806 40.3439 70.0146 39.3779 70.0146 37.7219Z" fill="#0F52FF"/>
<path d="M78.517 30.9601C78.517 31.8399 79.19 32.4436 80.053 32.4436C80.915 32.4436 81.588 31.8399 81.588 30.9601C81.588 30.0804 80.915 29.4766 80.053 29.4766C79.19 29.4766 78.517 30.0804 78.517 30.9601ZM81.139 33.4441H78.966V42.0001H81.139V33.4441Z" fill="#5BD0F4"/>
<path d="M83.076 45.4499H85.25V40.8959H85.422C85.905 41.5859 86.733 42.2414 88.217 42.2414C90.252 42.2414 92.081 40.5164 92.081 37.7219C92.081 34.9274 90.252 33.2024 88.217 33.2024C86.733 33.2024 85.905 33.8579 85.388 34.5997H85.215V33.4439H83.076V45.4499ZM87.561 40.3784C86.216 40.3784 85.215 39.4124 85.215 37.7219C85.215 36.0314 86.216 35.0654 87.561 35.0654C88.907 35.0654 89.907 36.0314 89.907 37.7219C89.907 39.4124 88.907 40.3784 87.561 40.3784Z" fill="#5BD0F4"/>
<path d="M93.349 35.8417C93.349 37.5322 94.763 38.1532 96.557 38.4982L97.006 38.5844C98.075 38.7914 98.558 39.0502 98.558 39.6022C98.558 40.1542 98.075 40.5854 97.075 40.5854C96.074 40.5854 95.264 40.1714 95.039 38.9294L93.038 39.4469C93.332 41.2409 94.832 42.2414 97.075 42.2414C99.248 42.2414 100.663 41.2237 100.663 39.4297C100.663 37.6356 99.214 37.1527 97.282 36.7732L96.833 36.6869C95.936 36.5144 95.453 36.2729 95.453 35.7037C95.453 35.1862 95.902 34.8584 96.73 34.8584C97.558 34.8584 98.144 35.2034 98.351 36.1349L100.318 35.5312C99.904 34.1512 98.645 33.2024 96.73 33.2024C94.694 33.2024 93.349 34.1512 93.349 35.8417Z" fill="#5BD0F4"/>
<path d="M110.426 42.0001V33.4441H108.253V37.8601C108.253 39.4471 107.477 40.3786 106.148 40.3786C104.975 40.3786 104.32 39.7404 104.32 38.4466V33.4441H102.146V38.5501C102.146 40.6719 103.475 42.1381 105.476 42.1381C107.045 42.1381 107.77 41.4481 108.115 40.7236H108.287V42.0001H110.426Z" fill="#5BD0F4"/>
<path d="M112.354 33.4439V41.9999H114.528V36.8939C114.528 35.7209 115.08 35.0654 116.08 35.0654C116.943 35.0654 117.46 35.5484 117.46 36.4799V41.9999H119.634V36.8939C119.634 35.7209 120.186 35.0654 121.186 35.0654C122.049 35.0654 122.566 35.5484 122.566 36.4799V41.9999H124.74V36.3764C124.74 34.3064 123.463 33.3059 121.876 33.3059C120.479 33.3059 119.841 33.9269 119.427 34.6514H119.254C118.857 33.8407 118.15 33.3059 116.908 33.3059C115.666 33.3059 114.993 33.8579 114.666 34.5134H114.493V33.4439H112.354Z" fill="#5BD0F4"/>
<g clip-path="url(#clip0_88_354)">
<path d="M263.529 56.5C274.575 56.5 283.529 47.546 283.529 36.5V22.5C283.529 20.9087 282.897 19.3826 281.772 18.2574C280.646 17.1321 279.12 16.5 277.529 16.5H264.529V25.274C264.529 27.276 264.651 29.35 265.701 31.054C266.453 32.2752 267.458 33.3204 268.649 34.1188C269.841 34.9171 271.19 35.4499 272.605 35.681L272.988 35.743C273.146 35.797 273.283 35.899 273.38 36.0347C273.477 36.1704 273.529 36.3331 273.529 36.5C273.529 36.6669 273.477 36.8296 273.38 36.9653C273.283 37.101 273.146 37.203 272.988 37.257L272.605 37.319C270.537 37.6568 268.628 38.6356 267.146 40.1171C265.664 41.5987 264.686 43.5082 264.348 45.576L264.286 45.959C264.232 46.1169 264.13 46.254 263.994 46.351C263.858 46.4481 263.696 46.5003 263.529 46.5003C263.362 46.5003 263.199 46.4481 263.064 46.351C262.928 46.254 262.826 46.1169 262.772 45.959L262.71 45.576C262.479 44.1607 261.946 42.8118 261.148 41.6205C260.349 40.4293 259.304 39.4237 258.083 38.672C256.379 37.622 254.305 37.5 252.303 37.5H243.553C244.076 48.081 252.819 56.5 263.529 56.5Z" fill="#0E1534"/>
<path d="M243.529 35.5H252.303C254.305 35.5 256.379 35.378 258.083 34.328C259.415 33.5073 260.536 32.386 261.357 31.054C262.407 29.35 262.529 27.276 262.529 25.274V16.5H249.529C247.938 16.5 246.411 17.1321 245.286 18.2574C244.161 19.3826 243.529 20.9087 243.529 22.5V35.5ZM289.984 18.5C289.984 19.0304 289.773 19.5391 289.398 19.9142C289.023 20.2893 288.514 20.5 287.984 20.5C287.453 20.5 286.945 20.2893 286.57 19.9142C286.195 19.5391 285.984 19.0304 285.984 18.5C285.984 17.9696 286.195 17.4609 286.57 17.0858C286.945 16.7107 287.453 16.5 287.984 16.5C288.514 16.5 289.023 16.7107 289.398 17.0858C289.773 17.4609 289.984 17.9696 289.984 18.5ZM455.24 28.604C460.831 28.604 463.529 32.509 463.529 37.032V45.527H457.678V38.04C457.678 35.99 456.93 34.298 454.785 34.298C452.64 34.298 451.925 35.99 451.925 38.04V45.526H446.074V38.04C446.074 35.99 445.359 34.298 443.213 34.298C441.068 34.298 440.32 35.99 440.32 38.04V45.526H434.47V37.031C434.47 32.508 437.167 28.603 442.758 28.603C445.814 28.603 448.024 29.807 449.032 31.792C450.104 29.807 452.445 28.602 455.24 28.602V28.604ZM423.956 40.32C425.841 40.32 426.654 38.595 426.654 36.544V29.254H432.504V37.26C432.504 42.044 429.709 46.015 423.956 46.015C418.202 46.015 415.407 42.045 415.407 37.26V29.254H421.258V36.544C421.258 38.594 422.07 40.32 423.956 40.32ZM406.804 46.047C403.131 46.047 400.758 44.778 399.36 42.305L403.586 39.929C404.171 40.97 405.048 41.491 406.511 41.491C407.714 41.491 408.266 41.068 408.266 40.547C408.266 38.562 399.685 40.58 399.685 34.267C399.685 31.207 402.285 28.734 406.706 28.734C410.574 28.734 412.687 30.621 413.63 32.444L409.404 34.852C409.047 33.876 407.941 33.29 406.836 33.29C405.991 33.29 405.536 33.648 405.536 34.136C405.536 36.154 414.117 34.299 414.117 40.417C414.117 43.834 410.769 46.047 406.804 46.047ZM386.362 53.012H380.511V37.358C380.511 32.378 384.249 28.766 389.45 28.766C394.521 28.766 398.389 32.639 398.389 37.358C398.389 42.565 394.943 46.015 389.775 46.015C388.572 46.015 387.37 45.657 386.362 45.103V53.012ZM389.45 40.515C391.303 40.515 392.538 39.083 392.538 37.39C392.538 35.666 391.303 34.266 389.45 34.266C387.597 34.266 386.362 35.666 386.362 37.391C386.362 39.083 387.597 40.515 389.45 40.515ZM374.65 27.53C372.732 27.53 371.14 25.935 371.14 24.015C371.14 22.095 372.732 20.5 374.65 20.5C376.568 20.5 378.161 22.095 378.161 24.015C378.161 25.935 376.568 27.53 374.65 27.53ZM371.725 29.254H377.576V45.527H371.725V29.254ZM360.499 46.015C355.428 46.015 351.56 42.11 351.56 37.358C351.56 32.639 355.428 28.734 360.499 28.734C365.57 28.734 369.438 32.639 369.438 37.358C369.438 42.11 365.57 46.015 360.499 46.015ZM360.499 40.515C362.352 40.515 363.587 39.083 363.587 37.39C363.587 35.666 362.352 34.234 360.499 34.234C358.646 34.234 357.411 35.666 357.411 37.39C357.411 39.083 358.646 40.515 360.499 40.515ZM340.512 53.5C336.482 53.5 333.556 51.71 332.061 48.52L336.904 45.917C337.424 47.024 338.399 48.163 340.414 48.163C342.528 48.163 343.925 46.828 344.088 44.485C343.308 45.169 342.072 45.689 340.22 45.689C335.701 45.689 332.06 42.207 332.06 37.325C332.06 32.607 335.929 28.766 341 28.766C346.201 28.766 349.939 32.379 349.939 37.358V43.802C349.939 49.66 345.875 53.5 340.512 53.5ZM340.902 40.19C342.657 40.19 343.99 38.985 343.99 37.195C343.99 35.438 342.658 34.266 340.902 34.266C339.179 34.266 337.814 35.438 337.814 37.196C337.814 38.986 339.179 40.189 340.902 40.189V40.19ZM322.136 46.015C317.065 46.015 313.196 42.11 313.196 37.358C313.196 32.639 317.065 28.734 322.136 28.734C327.206 28.734 331.075 32.639 331.075 37.358C331.075 42.11 327.207 46.015 322.136 46.015ZM322.136 40.515C323.989 40.515 325.224 39.083 325.224 37.39C325.224 35.666 323.989 34.234 322.136 34.234C320.283 34.234 319.048 35.666 319.048 37.39C319.048 39.083 320.283 40.515 322.136 40.515ZM302.542 23.56V39.994H312.229V45.527H301.729C298.024 45.527 296.529 43.574 296.529 40.482V23.56H302.542Z" fill="#0E1534"/>
</g>
<path d="M591.366 51.1546L588.113 45.5212L592.886 37.2766L595.919 42.5305L613.825 42.5209L608.744 51.2324L591.366 51.1546Z" fill="#FFAD64"/>
<path d="M617.022 36.9272L613.77 42.5605L604.243 42.5493L607.276 37.2955L598.315 21.7939L608.4 21.8382L617.022 36.9272Z" fill="#ADD4D3"/>
<path d="M591.867 21.7639H598.372L603.125 30.02L597.059 30.0197L588.114 45.5309L583.11 36.7752L591.867 21.7639Z" fill="#FB8351"/>
<path fill-rule="evenodd" clip-rule="evenodd" d="M599.165 20.4597L599.145 20.426H591.098L581.565 36.7685L588.109 48.2185L588.117 48.2046L590.591 52.4895L609.511 52.5741L616.155 41.1818H616.111L618.565 36.9307L609.179 20.5036L599.165 20.4597ZM605.39 31.3581H605.44L600.71 23.1426L607.622 23.1729L615.479 36.9238L613.02 41.1836L606.575 41.187L608.822 37.2951L605.39 31.3581ZM597.526 23.1021L600.752 28.6819L596.286 28.6818L588.64 41.9407L588.119 42.8416L584.656 36.7821L592.636 23.1021H597.526ZM594.425 37.2657L597.832 31.3579L602.299 31.3581L605.731 37.2959L603.483 41.1887L596.692 41.1924L594.425 37.2657ZM589.661 45.5268L590.957 43.2793L592.885 39.9502L595.147 43.8693L601.938 43.8656L601.927 43.8846L611.474 43.8959L607.977 49.8912L592.14 49.8203L589.661 45.5268Z" fill="#333237"/>
<path d="M667.304 30.2188C668.22 30.2188 668.965 29.4742 668.965 28.5388C668.965 27.6034 668.22 26.8779 667.304 26.8779C666.368 26.8779 665.624 27.6034 665.624 28.5388C665.624 29.4742 666.368 30.2188 667.304 30.2188ZM665.815 41.2533H668.774V31.7079H665.815V41.2533Z" fill="#FB8351"/>
<path d="M670.496 45.8351H673.398V40.2987C673.952 41.0242 675.212 41.5205 676.529 41.5205C679.374 41.5205 681.092 39.3442 681.016 36.3278C680.939 33.2541 679.164 31.4023 676.51 31.4023C675.154 31.4023 673.875 31.9941 673.341 32.8723L673.188 31.7078H670.496V45.8351ZM673.455 36.4805C673.455 35.0487 674.41 34.0942 675.784 34.0942C677.178 34.0942 678.056 35.0678 678.056 36.4805C678.056 37.8932 677.178 38.8669 675.784 38.8669C674.41 38.8669 673.455 37.9123 673.455 36.4805Z" fill="#FB8351"/>
<path d="M681.329 38.2369C681.405 40.1651 682.933 41.5014 685.338 41.5014C687.648 41.5014 689.252 40.2796 689.252 38.3132C689.252 36.9005 688.412 35.9651 686.846 35.5832L685.147 35.1632C684.536 35.0105 684.154 34.8578 684.154 34.3614C684.154 33.8651 684.555 33.5405 685.147 33.5405C685.815 33.5405 686.254 33.9796 686.235 34.6287H688.889C688.813 32.6432 687.304 31.4023 685.204 31.4023C683.085 31.4023 681.501 32.6623 681.501 34.5714C681.501 35.8505 682.207 36.9005 684.097 37.3969L685.777 37.836C686.273 37.9696 686.483 38.1987 686.483 38.5232C686.483 39.0005 686.044 39.306 685.3 39.306C684.441 39.306 683.983 38.9051 683.983 38.2369H681.329Z" fill="#FB8351"/>
<path d="M693.752 41.5016C694.916 41.5016 696.081 40.9671 696.673 40.1844L696.864 41.2534H699.632V31.708H696.692V36.6716C696.692 38.1034 696.272 38.8862 694.916 38.8862C693.866 38.8862 693.179 38.4089 693.179 36.6334V31.708H690.239V37.7025C690.239 39.9744 691.499 41.5016 693.752 41.5016Z" fill="#FB8351"/>
<path d="M704.294 41.2533V36.0415C704.294 34.4379 705.153 33.9797 705.993 33.9797C706.929 33.9797 707.54 34.5524 707.54 35.7361V41.2533H710.441V36.0415C710.441 34.4188 711.281 33.9606 712.121 33.9606C713.057 33.9606 713.687 34.5333 713.687 35.7361V41.2533H716.55V35.0106C716.55 32.8342 715.405 31.3833 712.942 31.3833C711.568 31.3833 710.441 32.0515 709.945 33.0824C709.372 32.0515 708.38 31.3833 706.795 31.3833C705.745 31.3833 704.771 31.8606 704.199 32.6242L704.084 31.7079H701.335V41.2533H704.294Z" fill="#FB8351"/>
<path d="M626.982 27.1274H623.851V41.2548H632.518V38.4866H626.982V27.1274Z" fill="#333237"/>
<path d="M632.817 36.463C632.817 39.4793 634.841 41.4839 637.896 41.4839C640.931 41.4839 642.955 39.4793 642.955 36.463C642.955 33.4466 640.931 31.4229 637.896 31.4229C634.841 31.4229 632.817 33.4466 632.817 36.463ZM635.776 36.4439C635.776 35.012 636.616 34.0575 637.896 34.0575C639.156 34.0575 639.996 35.012 639.996 36.4439C639.996 37.8948 639.156 38.8493 637.896 38.8493C636.616 38.8493 635.776 37.8948 635.776 36.4439Z" fill="#333237"/>
<path d="M643.428 36.3102C643.428 39.193 645.299 41.1402 647.952 41.1402C649.231 41.1402 650.339 40.6821 650.892 39.9375V41.2548C650.892 42.5721 650.071 43.4502 648.62 43.4502C647.322 43.4502 646.425 42.8393 646.368 41.7511H643.389C643.657 44.3666 645.68 46.123 648.449 46.123C651.713 46.123 653.775 44.0039 653.775 40.6439V31.7093H651.121L650.969 32.683C650.434 31.9002 649.308 31.3848 648.009 31.3848C645.337 31.3848 643.428 33.3893 643.428 36.3102ZM646.406 36.2339C646.406 34.8593 647.322 33.943 648.487 33.943C649.842 33.943 650.835 34.8402 650.835 36.2339C650.835 37.6275 649.861 38.582 648.506 38.582C647.341 38.582 646.406 37.6275 646.406 36.2339Z" fill="#333237"/>
<path d="M654.632 36.463C654.632 39.4793 656.655 41.4839 659.71 41.4839C662.745 41.4839 664.769 39.4793 664.769 36.463C664.769 33.4466 662.745 31.4229 659.71 31.4229C656.655 31.4229 654.632 33.4466 654.632 36.463ZM657.591 36.4439C657.591 35.012 658.431 34.0575 659.71 34.0575C660.97 34.0575 661.81 35.012 661.81 36.4439C661.81 37.8948 660.97 38.8493 659.71 38.8493C658.431 38.8493 657.591 37.8948 657.591 36.4439Z" fill="#333237"/>
<g clip-path="url(#clip1_88_354)">
<path fill-rule="evenodd" clip-rule="evenodd" d="M893.624 18.7286C893.624 17.3392 894.763 16.2129 896.167 16.2129H900.598C901.598 16.2129 902.566 16.5556 903.339 17.1827L904.687 18.2759L904.721 18.3063C904.752 18.296 904.783 18.2858 904.814 18.2759C907.246 17.5055 910.196 17.359 913.207 17.359C916.218 17.359 919.169 17.5055 921.6 18.2759C921.631 18.2858 921.662 18.296 921.694 18.3063L921.727 18.2759L923.075 17.1827C923.848 16.5556 924.817 16.2129 925.817 16.2129H930.247C931.652 16.2129 932.791 17.3392 932.791 18.7286V20.2838C932.791 21.487 932.278 22.6346 931.379 23.445L930.292 24.425C929.761 24.9034 929.124 25.2516 928.432 25.4414L928.175 25.512C929.182 27.8899 929.739 30.4317 929.739 32.4879C929.739 40.7593 924.565 44.3316 920.006 47.4792C916.416 49.958 913.207 52.1733 913.207 56.2129C913.207 52.1733 909.999 49.958 906.409 47.4792C901.85 44.3316 896.676 40.7593 896.676 32.4879C896.676 30.4317 897.232 27.8899 898.24 25.512L897.983 25.4414C897.291 25.2516 896.654 24.9034 896.123 24.425L895.036 23.445C894.136 22.6346 893.624 21.487 893.624 20.2838V18.7286ZM916.514 39.2501C916.514 39.6453 916.339 40.0242 916.029 40.3037C915.719 40.5831 915.299 40.7401 914.86 40.7401C914.482 40.7401 914.117 40.623 913.824 40.4112C914.322 41.7282 915.595 42.9761 917.531 40.9693C919.24 39.1046 917.455 35.1717 915.716 32.8379C915.136 32.06 914.184 31.6856 913.207 31.6856C912.23 31.6856 911.279 32.06 910.699 32.8379C908.96 35.1717 907.174 39.1046 908.884 40.9693C910.82 42.9761 912.093 41.7282 912.59 40.4112C912.298 40.623 911.933 40.7401 911.554 40.7401C911.116 40.7401 910.695 40.5831 910.385 40.3037C910.075 40.0242 909.901 39.6453 909.901 39.2501H916.514ZM906.877 27.608H902.271L905.901 30.4827C906.699 31.1152 907.867 30.913 908.361 30.0565C908.985 28.9751 908.156 27.608 906.877 27.608ZM919.538 27.608H924.143L920.514 30.4827C919.715 31.1152 918.548 30.913 918.054 30.0565C917.43 28.9751 918.258 27.608 919.538 27.608Z" fill="#72B800"/>
<path d="M938.277 44.5462H942.357V29.1562H938.277V44.5462ZM938.277 26.7562H942.357V23.0962H938.277V26.7562Z" fill="#355030"/>
<path d="M944.986 49.5863H949.066V42.8063H949.126C949.996 44.1263 951.406 44.9963 953.566 44.9963C957.526 44.9963 960.226 41.8463 960.226 36.8663C960.226 32.0663 957.616 28.7363 953.536 28.7363C951.436 28.7363 949.996 29.7263 949.006 31.0763H948.916V29.1563H944.986V49.5863ZM952.696 41.6063C950.266 41.6063 948.976 39.7763 948.976 36.9863C948.976 34.2263 949.996 32.0363 952.546 32.0363C955.066 32.0363 956.086 34.0763 956.086 36.9863C956.086 39.8963 954.766 41.6063 952.696 41.6063Z" fill="#355030"/>
<path d="M968.365 44.9963C972.205 44.9963 974.845 43.1363 974.845 40.0463C974.845 36.4463 971.995 35.7263 969.415 35.1863C967.225 34.7363 965.185 34.6163 965.185 33.2963C965.185 32.1863 966.235 31.5863 967.825 31.5863C969.565 31.5863 970.615 32.1863 970.795 33.8363H974.485C974.185 30.7463 971.935 28.7363 967.885 28.7363C964.375 28.7363 961.615 30.3263 961.615 33.6563C961.615 37.0163 964.315 37.7663 967.075 38.3063C969.175 38.7263 971.125 38.8763 971.125 40.3463C971.125 41.4263 970.105 42.1163 968.305 42.1163C966.475 42.1163 965.215 41.3363 964.945 39.5663H961.165C961.405 42.8363 963.895 44.9963 968.365 44.9963Z" fill="#355030"/>
<path d="M990.336 44.5463V29.1562H986.256V38.0363C986.256 40.0763 985.086 41.5163 983.166 41.5163C981.426 41.5163 980.616 40.5262 980.616 38.7262V29.1562H976.566V39.4163C976.566 42.7762 978.486 44.9662 981.906 44.9662C984.066 44.9662 985.266 44.1562 986.316 42.7463H986.406V44.5463H990.336Z" fill="#355030"/>
<path d="M992.975 44.5463H997.055V35.6063C997.055 33.5663 998.165 32.2463 999.815 32.2463C1001.31 32.2463 1002.18 33.1463 1002.18 34.8863V44.5463H1006.26V35.6063C1006.26 33.5663 1007.31 32.2463 1009.02 32.2463C1010.52 32.2463 1011.39 33.1463 1011.39 34.8863V44.5463H1015.47V34.1963C1015.47 30.8363 1013.64 28.7363 1010.4 28.7363C1008.45 28.7363 1006.83 29.7563 1005.78 31.4363H1005.72C1004.97 29.8163 1003.41 28.7363 1001.46 28.7363C999.335 28.7363 997.835 29.8163 996.995 31.2263H996.905V29.1563H992.975V44.5463Z" fill="#355030"/>
<path d="M835.271 44.5462H839.351V23.0962H835.271V44.5462Z" fill="#355030"/>
<path d="M849.327 44.9963C854.097 44.9963 857.367 41.4563 857.367 36.8663C857.367 32.2763 854.097 28.7363 849.327 28.7363C844.557 28.7363 841.287 32.2763 841.287 36.8663C841.287 41.4563 844.557 44.9963 849.327 44.9963ZM849.327 41.8763C846.807 41.8763 845.427 39.8663 845.427 36.8663C845.427 33.8663 846.807 31.8263 849.327 31.8263C851.817 31.8263 853.227 33.8663 853.227 36.8663C853.227 39.8663 851.817 41.8763 849.327 41.8763Z" fill="#355030"/>
<path d="M866.044 49.7963C868.324 49.7963 870.304 49.2563 871.594 48.0563C872.734 47.0063 873.424 45.5363 873.424 43.3763V29.1563H869.494V30.7763H869.434C868.504 29.4863 867.094 28.7363 865.174 28.7363C861.274 28.7363 858.514 31.6763 858.514 36.2663C858.514 40.9163 861.874 43.6163 865.294 43.6163C867.244 43.6163 868.414 42.8363 869.314 41.8163H869.404V43.4963C869.404 45.5963 868.294 46.7063 865.984 46.7063C864.094 46.7063 863.224 45.9563 862.894 44.9963H858.844C859.264 47.9963 861.844 49.7963 866.044 49.7963ZM865.984 40.3463C863.884 40.3463 862.504 38.8163 862.504 36.2063C862.504 33.6263 863.884 32.0063 865.954 32.0063C868.414 32.0063 869.614 33.9263 869.614 36.1763C869.614 38.4563 868.564 40.3463 865.984 40.3463Z" fill="#355030"/>
<path d="M883.341 44.9963C888.111 44.9963 891.381 41.4563 891.381 36.8663C891.381 32.2763 888.111 28.7363 883.341 28.7363C878.571 28.7363 875.301 32.2763 875.301 36.8663C875.301 41.4563 878.571 44.9963 883.341 44.9963ZM883.341 41.8763C880.821 41.8763 879.441 39.8663 879.441 36.8663C879.441 33.8663 880.821 31.8263 883.341 31.8263C885.831 31.8263 887.241 33.8663 887.241 36.8663C887.241 39.8663 885.831 41.8763 883.341 41.8763Z" fill="#355030"/>
<path d="M1015.29 25.7964C1015.29 25.106 1015.85 24.5464 1016.54 24.5464H1019.04C1019.73 24.5464 1020.29 25.106 1020.29 25.7964C1020.29 26.4867 1019.73 27.0464 1019.04 27.0464H1016.54C1015.85 27.0464 1015.29 26.4867 1015.29 25.7964Z" fill="#355030"/>
</g>
<path d="M1307.51 24.1642L1311.68 28.3668C1311.83 28.4829 1311.94 28.6396 1311.99 28.8171C1312.08 29.8515 1311.3 29.9081 1310.5 29.9659C1310.15 29.9909 1309.8 30.0162 1309.52 30.121C1308.11 30.5009 1306.86 31.3033 1305.93 32.4193C1305 33.5353 1304.43 34.9109 1304.31 36.3593C1304.22 36.5266 1304.08 36.6643 1303.92 36.7558C1303.75 36.8474 1303.56 36.8888 1303.37 36.8753C1303.15 36.8558 1302.95 36.7595 1302.79 36.6032L1301.42 35.2238C1301.43 35.3182 1301.43 35.4117 1301.43 35.4869V36.3968C1301.43 36.4543 1301.43 36.5097 1301.43 36.565C1301.42 36.627 1301.4 36.6888 1301.35 36.7532V36.8377C1301.35 36.8808 1301.35 36.9209 1301.36 36.9616C1301.37 37.0449 1301.38 37.1307 1301.35 37.2505C1301.32 37.3622 1301.31 37.4925 1301.31 37.6088C1301.31 37.6779 1301.31 37.7421 1301.3 37.7945C1301.29 37.8672 1301.29 37.9448 1301.28 38.0223C1301.28 38.0949 1301.27 38.1674 1301.23 38.2354C1301.19 38.3306 1301.17 38.4215 1301.17 38.5139C1301.17 38.5581 1301.17 38.6026 1301.17 38.6482L1301.11 38.939L1298.98 49.0891L1298.81 49.8489L1298.75 50.9559L1297.81 55.7495L1297.66 56.5H1221.74L1221.37 56.1341L1221.31 56.4531H1213.19L1208.66 51.9034L1209.1 49.8489H1206.54L1204.96 48.2448C1202.99 49.6775 1200.61 50.4285 1198.18 50.3837C1195.56 50.4866 1193.01 49.5488 1191.08 47.7758L1188.62 45.2899L1188.08 47.7851C1188.02 48.1416 1187.93 48.4794 1187.84 48.8077L1187.75 49.1173L1187.61 49.5675C1187.6 49.6066 1187.59 49.6444 1187.57 49.6801C1187.43 50.0937 1187.26 50.4979 1187.07 50.8902C1187.07 50.9054 1187.07 50.9219 1187.07 50.9371C1187.04 50.9891 1187.02 51.0392 1186.98 51.0872C1186.84 51.3675 1186.69 51.6399 1186.52 51.9034C1186.48 51.9513 1186.46 52.0015 1186.43 52.0535L1186.33 52.166C1186.1 52.4949 1185.85 52.8082 1185.58 53.1041C1185.5 53.1783 1185.43 53.248 1185.35 53.3164C1185.28 53.3864 1185.2 53.4551 1185.12 53.5262L1184.91 53.7232C1184.78 53.8313 1184.65 53.9356 1184.51 54.0361C1184.4 54.119 1184.29 54.1992 1184.17 54.2767C1182.24 55.4222 1180.01 55.9674 1177.76 55.8433C1174.67 55.8433 1172.19 54.9427 1170.62 53.3668L1166.22 48.9296C1164.45 49.9262 1162.46 50.4377 1160.44 50.4118C1157.83 50.4925 1155.29 49.542 1153.38 47.7664L1150.92 45.2805L1150.12 49.1173L1149.96 49.8771H1141.66L1137.12 45.2992L1137.35 44.1923L1142.34 20.2242L1142.49 19.4737H1150.82L1151.04 19.6801V19.4737H1207.16L1207.37 19.6801V19.4737H1215.49L1220.03 24.0516L1219.81 25.1491L1219.56 26.3499H1221.9L1222.27 26.7158C1223.29 26.1134 1224.46 25.79 1225.65 25.7777C1226.53 25.7604 1227.4 25.9268 1228.21 26.2661C1229.01 26.6054 1229.74 27.11 1230.34 27.7476L1230.22 27.6069L1232.43 29.8302C1233.77 27.3068 1236.78 25.7777 1240.87 25.7777C1244.04 25.7777 1246.37 26.5844 1247.79 28.0478L1249.39 29.652L1249.92 27.0722L1250.08 26.3217H1258.21L1260.54 28.6576L1260.87 27.0816L1261.03 26.3311H1277.03L1277.46 26.7627C1278.55 26.1231 1279.79 25.7982 1281.05 25.8246C1281.8 25.795 1282.56 25.9337 1283.26 26.2305C1283.95 26.5273 1284.58 26.975 1285.08 27.5413C1285.05 27.5118 1285.03 27.4823 1285 27.4533C1284.96 27.3995 1284.91 27.347 1284.87 27.2984L1285.68 28.1135C1286.39 27.3782 1287.24 26.7959 1288.19 26.4024C1289.13 26.0088 1290.15 25.8121 1291.17 25.8246C1291.71 25.7912 1292.25 25.8374 1292.78 25.9603L1291.89 25.0647C1291.77 24.9353 1291.69 24.7742 1291.65 24.6002C1291.62 24.4262 1291.64 24.2463 1291.7 24.0815C1291.77 23.9166 1291.88 23.7734 1292.02 23.6685C1292.16 23.5637 1292.33 23.5013 1292.51 23.4887H1293.22C1293.41 23.4704 1293.61 23.4423 1293.79 23.4043C1294.79 23.1947 1295.73 22.7662 1296.54 22.1497C1297.35 21.5332 1298.02 20.7442 1298.49 19.8396C1298.53 19.7696 1298.56 19.6977 1298.6 19.6238V19.577C1298.92 18.8822 1299.12 18.1358 1299.18 17.3724C1299.2 17.1352 1299.3 16.9131 1299.48 16.7512C1299.65 16.5892 1299.88 16.4994 1300.12 16.5H1300.19C1300.33 16.5135 1300.47 16.5594 1300.59 16.6342C1300.72 16.709 1300.82 16.8107 1300.9 16.9315C1301.57 17.5882 1305.32 21.4062 1305.32 21.4062C1305.64 21.7424 1305.61 22.1789 1305.59 22.6205C1305.57 22.8935 1305.56 23.1686 1305.62 23.4231C1305.79 23.4537 1305.97 23.4769 1306.14 23.4926C1306.31 23.5075 1306.47 23.5157 1306.64 23.5169C1306.83 23.5209 1307.02 23.5854 1307.18 23.7014C1307.33 23.8173 1307.45 23.9791 1307.51 24.1642Z" fill="black"/>
<path d="M1180.05 27.2505H1185.98L1182.66 43.0009C1182.05 45.984 1180.89 47.6914 1179.12 48.9015C1177.34 49.9366 1175.29 50.4258 1173.23 50.3086C1169.31 50.3086 1165.55 48.667 1165.17 44.6801H1171.14C1171.33 45.6182 1172.19 46.1529 1173.5 46.1529C1175.28 46.1529 1176.09 45.0835 1176.46 43.4043L1176.82 41.6688H1176.68C1176.16 42.2443 1175.53 42.7073 1174.82 43.0298C1174.11 43.3523 1173.34 43.5276 1172.57 43.545C1169.11 43.545 1166.37 40.7964 1166.43 36.772C1166.51 32.0816 1169.56 26.7533 1174.7 26.7533C1175.67 26.6878 1176.64 26.9021 1177.49 27.3709C1178.35 27.8396 1179.05 28.5433 1179.52 29.3987H1179.62L1180.05 27.2505ZM1174.96 39.1454C1177.24 39.1454 1178.5 36.5188 1178.54 34.258C1178.54 32.7477 1177.95 31.1998 1176.21 31.1998C1173.82 31.1998 1172.61 33.8546 1172.58 36.1341C1172.58 37.6726 1173.17 39.1454 1174.91 39.1454M1241.52 39.652C1241.52 40.6557 1240.65 41.0591 1239.52 41.0591C1237.64 41.0591 1237.01 40.121 1237 38.8077H1231.1C1231 43.7045 1235.37 44.9146 1239.25 44.9146C1244.22 44.9146 1247.43 42.7664 1247.5 38.4794C1247.5 35.0553 1244.58 34.0141 1241.71 33.348C1239.51 32.8415 1238.54 32.4756 1238.55 31.6407C1238.56 30.8058 1239.55 30.4681 1240.51 30.4681C1241.72 30.4681 1242.55 30.8996 1242.63 32.0066H1248.36C1248.3 27.9165 1244.61 26.7158 1240.86 26.7158C1236.3 26.7158 1232.74 28.7889 1232.69 32.7101C1232.69 35.7964 1234.77 36.9315 1237.91 37.7383C1239.93 38.273 1241.53 38.4418 1241.52 39.652ZM1285.35 29.7927H1285.25C1284.99 28.8689 1284.43 28.0602 1283.65 27.5005C1282.87 26.9409 1281.93 26.664 1280.97 26.7158C1278.42 26.7158 1276.86 27.9822 1275.39 29.8959H1275.29L1275.83 27.2505H1269.86L1266.29 44.3424H1272.53L1274.4 35.121C1274.84 33.1135 1275.86 31.7064 1277.41 31.7064C1278.95 31.7064 1279.16 32.9446 1278.84 34.455L1276.78 44.3424H1283.02L1284.89 35.121C1285.32 32.9822 1286.35 31.7064 1287.89 31.7064C1289.44 31.7064 1289.65 32.879 1289.33 34.455L1287.27 44.3424H1293.5L1295.74 34.1829C1296.67 29.8959 1295.24 26.6782 1291.12 26.6782C1289.98 26.6735 1288.85 26.9561 1287.84 27.5002C1286.83 28.0443 1285.98 28.8325 1285.35 29.7927ZM1138.26 44.3424H1144.7L1149.69 20.3743H1143.25L1138.26 44.3424ZM1157.66 26.7439C1162.01 26.7439 1166.17 29.1266 1166.1 34.5206C1166.05 40.4212 1162.03 44.8396 1155.9 44.8396C1151.67 44.8396 1147.45 42.4944 1147.53 37.1285C1147.63 31.3687 1151.59 26.7439 1157.66 26.7439ZM1156.07 40.6557C1158.82 40.6557 1159.83 36.6688 1159.83 34.3236C1159.83 32.6445 1159.31 31.0028 1157.5 31.0028C1154.78 31.0028 1153.85 35.2242 1153.85 37.4006C1153.85 39.1454 1154.34 40.6557 1156.11 40.6557M1151.83 20.3743L1150.9 25.1679H1205.01L1205.95 20.3743H1151.83ZM1195.36 26.7439C1199.71 26.7439 1203.87 29.1266 1203.8 34.5206C1203.75 40.4212 1199.72 44.8396 1193.59 44.8396C1189.37 44.8396 1185.15 42.4944 1185.23 37.1285C1185.36 31.3687 1189.32 26.7439 1195.36 26.7439ZM1193.8 40.6557C1196.55 40.6557 1197.56 36.6688 1197.56 34.3236C1197.56 32.6445 1197.03 31.0028 1195.22 31.0028C1192.51 31.0028 1191.57 35.2242 1191.57 37.4006C1191.57 39.1454 1192.06 40.6557 1193.84 40.6557M1208.17 20.3743L1207.23 25.1679H1213.46L1214.4 20.3743H1208.17ZM1203.18 44.3424H1209.41L1212.99 27.2505H1206.71L1203.18 44.3424ZM1223.08 44.9146C1222.09 44.9851 1221.1 44.7776 1220.21 44.3153C1219.33 43.853 1218.6 43.1542 1218.09 42.2974H1217.99L1216.11 50.9465H1209.8L1214.86 27.2505H1220.79L1220.32 29.53C1220.94 28.688 1221.75 27.9973 1222.67 27.5098C1223.59 27.0224 1224.62 26.7509 1225.66 26.7158C1229.41 26.7158 1231.62 29.9334 1231.55 34.1173C1231.47 39.3799 1228.74 44.9146 1223.04 44.9146H1223.08ZM1222.84 31.5563C1220.43 31.5563 1218.94 34.6426 1218.91 37.016C1218.91 38.667 1219.49 40.5056 1221.47 40.5056C1224.05 40.5056 1225.11 37.091 1225.14 34.8114C1225.14 33.2636 1224.69 31.5563 1222.84 31.5563ZM1258.91 41.6501H1259.01L1258.47 44.3612H1264.39L1267.97 27.2692H1261.74L1259.75 36.8189C1259.35 38.7983 1258.13 39.8396 1256.59 39.8396C1255.05 39.8396 1254.71 38.3949 1255.02 36.8846L1257.04 27.2692H1250.81L1248.61 37.8227C1247.67 42.4193 1249.81 44.8959 1253.39 44.8959C1254.52 44.8849 1255.62 44.5774 1256.59 44.0042C1257.56 43.431 1258.36 42.6125 1258.91 41.6313V41.6501ZM1292.37 51.031L1293.31 46.2373H1219.33L1218.39 51.031H1292.37Z" fill="white"/>
<path d="M1299.08 31.9409C1299.01 31.9362 1298.95 31.9193 1298.9 31.8912C1298.84 31.8632 1298.79 31.8245 1298.75 31.7774C1298.71 31.7303 1298.68 31.6758 1298.67 31.6169C1298.65 31.558 1298.64 31.496 1298.64 31.4343C1298.72 30.5989 1298.62 29.7563 1298.35 28.9619C1298.08 28.1675 1297.65 27.439 1297.08 26.8244C1296.51 26.2097 1295.81 25.7227 1295.04 25.3952C1294.27 25.0677 1293.43 24.9071 1292.59 24.924C1292.47 24.924 1292.35 24.8746 1292.26 24.7866C1292.17 24.6987 1292.12 24.5793 1292.12 24.4549C1292.12 24.3305 1292.17 24.2113 1292.26 24.1233C1292.35 24.0353 1292.47 23.9859 1292.59 23.9859C1292.82 24.0004 1293.04 24.0004 1293.27 23.9859C1294.94 23.8084 1296.49 23.0556 1297.66 21.8571C1298.83 20.6585 1299.55 19.0892 1299.69 17.4193C1299.7 17.3015 1299.75 17.1917 1299.84 17.1117C1299.92 17.0317 1300.04 16.9874 1300.15 16.9878C1300.22 16.9925 1300.28 17.0094 1300.33 17.0375C1300.39 17.0655 1300.44 17.1042 1300.48 17.1513C1300.52 17.1984 1300.55 17.2529 1300.57 17.3118C1300.58 17.3707 1300.59 17.4327 1300.59 17.4944C1300.51 18.329 1300.61 19.1708 1300.88 19.9645C1301.15 20.7583 1301.58 21.4862 1302.15 22.1007C1302.72 22.7152 1303.41 23.2025 1304.19 23.5305C1304.96 23.8586 1305.79 24.0202 1306.63 24.0047C1306.75 24.0047 1306.87 24.0541 1306.96 24.1421C1307.05 24.23 1307.1 24.3493 1307.1 24.4737C1307.1 24.5981 1307.05 24.7174 1306.96 24.8054C1306.87 24.8933 1306.75 24.9428 1306.63 24.9428C1304.85 24.9722 1303.14 25.6587 1301.83 26.8707C1300.52 28.0826 1299.71 29.7345 1299.55 31.5094C1299.54 31.6272 1299.48 31.7371 1299.4 31.8171C1299.31 31.8971 1299.19 31.9413 1299.08 31.9409Z" fill="white"/>
<defs>
<clipPath id="clip0_88_354">
<rect width="220" height="40" fill="white" transform="translate(243.529 16.5)"/>
</clipPath>
<clipPath id="clip1_88_354">
<rect width="186" height="41" fill="white" transform="translate(834.587 16)"/>
</clipPath>
</defs>
</svg>
