<svg width="42" height="42" viewBox="0 0 42 42" fill="none" xmlns="http://www.w3.org/2000/svg">
<path d="M21 28C24.866 28 28 24.866 28 21C28 17.134 24.866 14 21 14C17.134 14 14 17.134 14 21C14 24.866 17.134 28 21 28Z" stroke="#707685" stroke-width="1.5" stroke-linecap="round" stroke-linejoin="round"/>
<path d="M5.25 31.75V10.25C5.25 7.48858 7.48858 5.25 10.25 5.25H31.75C34.5114 5.25 36.75 7.48858 36.75 10.25V31.75C36.75 34.5114 34.5114 36.75 31.75 36.75H10.25C7.48858 36.75 5.25 34.5114 5.25 31.75Z" stroke="#707685" stroke-width="1.5"/>
<path d="M30.625 11.3925L30.6425 11.3731" stroke="#707685" stroke-width="1.5" stroke-linecap="round" stroke-linejoin="round"/>
</svg>
