<svg width="14" height="14" viewBox="0 0 14 14" fill="none" xmlns="http://www.w3.org/2000/svg">
<g clip-path="url(#clip0_991_2086)">
<path d="M7 10.5C8.933 10.5 10.5 8.933 10.5 7C10.5 5.067 8.933 3.5 7 3.5C5.067 3.5 3.5 5.067 3.5 7C3.5 8.933 5.067 10.5 7 10.5Z" stroke="#F5EC10" stroke-width="1.5" stroke-linecap="round" stroke-linejoin="round"/>
<path d="M12.8333 7L13.4166 7" stroke="#F5EC10" stroke-width="1.5" stroke-linecap="round" stroke-linejoin="round"/>
<path d="M7 1.16666V0.583323" stroke="#F5EC10" stroke-width="1.5" stroke-linecap="round" stroke-linejoin="round"/>
<path d="M7 13.4167V12.8333" stroke="#F5EC10" stroke-width="1.5" stroke-linecap="round" stroke-linejoin="round"/>
<path d="M11.6667 11.6667L11.0834 11.0833" stroke="#F5EC10" stroke-width="1.5" stroke-linecap="round" stroke-linejoin="round"/>
<path d="M11.6667 2.33334L11.0834 2.91668" stroke="#F5EC10" stroke-width="1.5" stroke-linecap="round" stroke-linejoin="round"/>
<path d="M2.33331 11.6667L2.91665 11.0833" stroke="#F5EC10" stroke-width="1.5" stroke-linecap="round" stroke-linejoin="round"/>
<path d="M2.33331 2.33334L2.91665 2.91668" stroke="#F5EC10" stroke-width="1.5" stroke-linecap="round" stroke-linejoin="round"/>
<path d="M0.583313 7L1.16665 7" stroke="#F5EC10" stroke-width="1.5" stroke-linecap="round" stroke-linejoin="round"/>
</g>
<defs>
<clipPath id="clip0_991_2086">
<rect width="14" height="14" fill="white"/>
</clipPath>
</defs>
</svg>
